<svg width="180" height="180" viewBox="0 0 180 180" fill="none" xmlns="http://www.w3.org/2000/svg">
<mask id="mask0_107_2" style="mask-type:alpha" maskUnits="userSpaceOnUse" x="15" y="51" width="148" height="73">
<path d="M76.0901 113.292C62.6381 126.743 41.0825 127.152 27.1386 114.517L38.4676 103.188L58.5068 83.1492L62.2745 86.9166L43.1209 106.07C50.2768 109.207 58.9287 107.846 64.7867 101.989C72.4163 94.3584 72.4163 81.9876 64.7867 74.3574C57.1564 66.7272 44.7855 66.7272 37.1554 74.3574C30.3832 81.1296 29.6218 91.6368 34.8712 99.249L23.4639 110.656C12.0306 96.702 12.8265 76.0788 25.8517 63.0534C39.7247 49.1806 62.2169 49.1806 76.0901 63.0534C89.9628 76.9266 89.9628 99.4188 76.0901 113.292Z" fill="#FF3CD4"/>
<path d="M126.611 122.656C145.636 122.656 161.167 107.702 162.092 88.9086H117.731V94.2372H144.818C141.976 101.515 134.896 106.67 126.612 106.67C115.821 106.67 107.074 97.923 107.074 87.132C107.074 76.3416 115.821 67.5942 126.612 67.5942C136.189 67.5942 144.157 74.4852 145.828 83.58H161.96C160.178 65.6286 145.032 51.6082 126.611 51.6082C106.993 51.6082 91.0879 67.5126 91.0879 87.132C91.0879 106.751 106.993 122.656 126.611 122.656Z" fill="#FF3CD4"/>
</mask>
<g mask="url(#mask0_107_2)">
<path d="M13.2 50.4H168V124.8H13.2V50.4Z" fill="url(#paint0_linear_107_2)"/>
</g>
<defs>
<linearGradient id="paint0_linear_107_2" x1="143.98" y1="57.4857" x2="70.458" y2="129.555" gradientUnits="userSpaceOnUse">
<stop stop-color="#FAEA53"/>
<stop offset="0.123193" stop-color="#FFAF90"/>
<stop offset="0.251059" stop-color="#FE7981"/>
<stop offset="0.562232" stop-color="#BC50FF"/>
<stop offset="1" stop-color="#53B7FF"/>
</linearGradient>
</defs>
</svg>
